HIERARCHY
ROOT Hips
{
	OFFSET 0.00000 0.00000 0.00000
	CHANNELS 6 Xposition Yposition Zposition Zrotation Yrotation Xrotation 
	JOINT LHipJoint
	{
		OFFSET 0 0 0
		CHANNELS 3 Zrotation Yrotation Xrotation
		JOINT LeftHip
		{
			OFFSET 1.23340 -1.80723 0.69510
			CHANNELS 3 Zrotation Yrotation Xrotation
			JOINT LeftKnee
			{
				OFFSET 2.50056 -6.87023 0.00000
				CHANNELS 3 Zrotation Yrotation Xrotation
				JOINT LeftAnkle
				{
					OFFSET 2.85931 -7.85591 0.00000
					CHANNELS 3 Zrotation Yrotation Xrotation
					JOINT LeftToe
					{
						OFFSET 0.21001 -0.57700 2.07823
						CHANNELS 3 Zrotation Yrotation Xrotation
						End Site
						{
							OFFSET 0.00000 -0.00000 1.08338
						}
					}
				}
			}
		}
	}
	JOINT RHipJoint
	{
		OFFSET 0 0 0
		CHANNELS 3 Zrotation Yrotation Xrotation
		JOINT RightHip
		{
			OFFSET -1.40842 -1.80723 0.69510
			CHANNELS 3 Zrotation Yrotation Xrotation
			JOINT RightKnee
			{
				OFFSET -2.54876 -7.00266 0.00000
				CHANNELS 3 Zrotation Yrotation Xrotation
				JOINT RightAnkle
				{
					OFFSET -2.74835 -7.55104 0.00000
					CHANNELS 3 Zrotation Yrotation Xrotation
					JOINT RightToe
					{
						OFFSET -0.22633 -0.62184 2.00890
						CHANNELS 3 Zrotation Yrotation Xrotation
						End Site
						{
							OFFSET -0.00000 -0.00000 1.05493
						}
					}
				}
			}
		}
	}
	JOINT lowerback
	{
		OFFSET 0 0 0
		CHANNELS 3 Zrotation Yrotation Xrotation
		JOINT Chest
		{
			OFFSET -0.02340 2.02740 -0.12728
			CHANNELS 3 Zrotation Yrotation Xrotation
			JOINT Chest2
			{
				OFFSET -0.00862 2.03614 -0.01188
				CHANNELS 3 Zrotation Yrotation Xrotation
				JOINT lowerneck
				{
					OFFSET 0 0 0
					CHANNELS 3 Zrotation Yrotation Xrotation
					JOINT Neck
					{
						OFFSET 0.03380 1.76650 0.27670
						CHANNELS 3 Zrotation Yrotation Xrotation
						JOINT Head
						{
							OFFSET -0.01114 1.80516 -0.21451
							CHANNELS 3 Zrotation Yrotation Xrotation
							End Site
							{
								OFFSET -0.00766 1.81942 -0.10287
							}
						}
					}
				}
				JOINT LeftCollar
				{
					OFFSET 0 0 0
					CHANNELS 3 Zrotation Yrotation Xrotation
					JOINT LeftShoulder
					{
						OFFSET 3.22358 1.39475 0.18630
CHANNELS 3 Zrotation Xrotation Yrotation
						JOINT LeftElbow
						{
OFFSET 0 -5.450770 0.000000
CHANNELS 3 Zrotation Xrotation Yrotation
							JOINT LeftWrist
							{
OFFSET 0 -3.054880 0.000000
CHANNELS 3 Zrotation Xrotation Yrotation
								JOINT lhand
								{
									OFFSET 0 0 0
CHANNELS 3 Zrotation Xrotation Yrotation
									JOINT LFingers
									{
OFFSET 0 -0.638820 0.000000
CHANNELS 3 Zrotation Xrotation Yrotation
										End Site
										{
OFFSET 0 -0.515030 0.000000
										}
									}
								}
								JOINT LThumb
								{
OFFSET 0 0.000000 0.000000
CHANNELS 3 Zrotation Xrotation Yrotation
									End Site
									{
OFFSET 0 -0.522900 0.522900
									}
								}
							}
						}
					}
				}
				JOINT RightCollar
				{
					OFFSET 0 0 0
					CHANNELS 3 Zrotation Yrotation Xrotation
					JOINT RightShoulder
					{
						OFFSET -3.57143 1.14055 0.30691
CHANNELS 3 Zrotation Xrotation Yrotation
						JOINT RightElbow
						{
OFFSET 0 -4.887020 -0.000000
CHANNELS 3 Zrotation Xrotation Yrotation
							JOINT RightWrist
							{
OFFSET 0 -3.226030 0.000000
CHANNELS 3 Zrotation Xrotation Yrotation
								JOINT rhand
								{
									OFFSET 0 0 0
CHANNELS 3 Zrotation Xrotation Yrotation
									JOINT RFingers
									{
OFFSET 0 -0.716290 0.000000
CHANNELS 3 Zrotation Xrotation Yrotation
										End Site
										{
OFFSET 0 -0.577490 0.000000
										}
									}
								}
								JOINT RThumb
								{
OFFSET 0 0.000000 0.000000
CHANNELS 3 Zrotation Xrotation Yrotation
									End Site
									{
OFFSET 0 -0.586310 0.586310
									}
								}
							}
						}
					}
				}
			}
		}
	}
}
MOTION
Frames: 5
Frame Time: 0.008333333333333333
1.438528 18.513210 0.606564 5.564567 63.831123 17.095857 0.000000 0.000000 0.000000 -24.571467 8.915577 -15.618603 0.631244 5.083686 14.147462 0.639389 6.757994 -19.053995 1.673776 -8.150655 -23.172617 0.000000 0.000000 0.000000 11.645462 7.340664 -14.466255 -0.236678 -3.131134 8.644012 1.108422 18.252430 6.517627 -0.011764 0.700049 -1.923860 -4.648004 -5.117485 -8.266871 0.289236 -6.386533 -3.954824 2.285825 -3.111620 1.045114 -8.988557 -17.861617 -8.156007 8.787975 -24.307464 11.225666 1.678969 -11.601765 6.893169 0.000000 0.000000 0.000000 19.084541 22.567116 -42.352343 41.816876 -49.110102 19.802051 35.737448 147.315440 20.479655 0.000000 0.000000 0.000000 -7.125000 0.000000 0.000000 4.526286 5.336553 4.099421 0.000000 0.000000 0.000000 -36.956840 -21.917920 -2.964598 -96.368752 -59.846147 -65.512594 -22.231059 -40.337332 3.931779 0.000000 0.000000 0.000000 7.125000 0.000000 0.000000 3.623449 34.209103 0.961036
1.432555 18.513073 0.601213 6.214098 64.147221 17.866976 0.000000 0.000000 0.000000 -24.822370 8.708113 -15.811932 0.629730 5.077633 14.130139 0.636570 6.589951 -18.891772 1.686143 -8.179075 -23.259483 0.000000 0.000000 0.000000 11.395231 7.301646 -14.976421 -0.272210 -3.356014 9.271544 1.114402 18.313026 6.067937 -0.012124 0.709953 -1.950927 -4.773555 -4.991964 -7.923858 0.410741 -6.235784 -3.730664 2.513258 -3.043389 1.104215 -9.205792 -17.930579 -8.140684 9.241284 -24.415617 10.939636 1.824975 -11.637527 6.894661 0.000000 0.000000 0.000000 24.241421 29.841558 -44.386319 41.242673 -48.789128 19.368952 36.162183 148.099083 19.517943 0.000000 0.000000 0.000000 -7.125000 0.000000 0.000000 4.958244 6.350004 4.396517 0.000000 0.000000 0.000000 -38.208689 -20.791754 -3.381937 -97.622504 -59.779322 -66.596325 -21.966291 -40.094297 3.750601 0.000000 0.000000 0.000000 7.125000 0.000000 0.000000 3.828017 34.004329 1.034496
1.427999 18.511841 0.561888 7.174234 64.011561 19.011778 0.000000 0.000000 0.000000 -25.575453 9.051225 -16.056168 0.587066 4.905589 13.639582 0.633838 6.215223 -18.572954 1.695272 -8.199710 -23.322501 0.000000 0.000000 0.000000 10.680183 7.497933 -15.922944 -0.333982 -3.713928 10.273152 1.153159 18.641030 5.663909 -0.012526 0.722609 -1.985843 -4.794652 -4.805197 -8.059197 0.250988 -5.973827 -3.487428 2.364992 -2.924449 1.395159 -9.266270 -17.800354 -7.654696 9.472644 -24.310332 11.082272 1.948767 -11.588520 6.891064 0.000000 0.000000 0.000000 25.565994 30.932944 -42.526668 41.935383 -49.175669 19.891604 35.973864 148.525075 18.929866 0.000000 0.000000 0.000000 -7.125000 0.000000 0.000000 4.941491 7.084570 4.310803 0.000000 0.000000 0.000000 -38.274512 -20.818817 -4.039452 -97.606334 -59.780232 -66.582406 -21.235432 -39.833290 4.001539 0.000000 0.000000 0.000000 7.125000 0.000000 0.000000 4.446016 34.245962 1.176195
1.407458 18.514441 0.527862 6.971005 64.031570 18.798938 0.000000 0.000000 0.000000 -25.525506 9.021917 -16.237280 0.603519 4.972747 13.830858 0.653533 5.902230 -18.547989 1.579605 -7.929110 -22.499011 0.000000 0.000000 0.000000 10.726688 7.449084 -15.754611 -0.304635 -3.548359 9.809318 1.127603 18.435857 5.712626 -0.026723 1.052973 -2.894581 -4.503045 -4.737954 -7.789880 0.242307 -5.922999 -3.323107 2.215832 -2.906154 1.384467 -9.550760 -17.603873 -7.780851 9.594453 -24.091077 11.796306 2.002796 -11.455502 7.174724 0.000000 0.000000 0.000000 25.235624 28.144556 -41.595788 42.898463 -49.696417 20.623342 34.987071 148.786645 19.523485 0.000000 0.000000 0.000000 -7.125000 0.000000 0.000000 4.222391 6.630332 3.716933 0.000000 0.000000 0.000000 -38.044734 -21.227469 -3.793463 -97.619092 -59.779477 -66.593451 -21.553747 -39.928157 4.016731 0.000000 0.000000 0.000000 7.125000 0.000000 0.000000 4.185812 34.274480 1.104151
1.406555 18.514480 0.510794 7.299926 63.658418 19.166645 0.000000 0.000000 0.000000 -25.857794 9.213998 -16.275580 0.584417 4.894855 13.609023 0.641679 5.864555 -18.393250 1.554575 -7.869167 -22.317315 0.000000 0.000000 0.000000 10.444034 7.444496 -16.079316 -0.317062 -3.619776 10.009339 1.166132 18.722211 6.022978 -0.022234 0.962352 -2.645152 -4.570228 -4.741741 -7.858258 0.007768 -5.912450 -3.187363 2.000833 -2.906499 1.543881 -9.440751 -17.380533 -7.958683 9.643035 -23.864013 12.458571 1.995562 -11.308871 7.393192 0.000000 0.000000 0.000000 24.648178 25.977100 -40.391586 44.036743 -50.287725 21.495152 35.946145 148.117130 20.836639 0.000000 0.000000 0.000000 -7.125000 0.000000 0.000000 4.592365 4.869626 4.199686 0.000000 0.000000 0.000000 -38.035401 -21.778256 -3.457024 -97.150901 -59.805855 -66.188838 -20.946775 -39.801761 4.228636 0.000000 0.000000 0.000000 7.125000 0.000000 0.000000 4.701626 34.476985 1.217782
